<!-- Generated by IcoMoon.io -->
<svg version="1.1" xmlns="http://www.w3.org/2000/svg" width="50" height="50" viewBox="0 0 50 50">
<title>github</title>
<path d="M32.95 28.273c-1.795 0-3.25 2.017-3.25 4.498 0 2.485 1.455 4.502 3.25 4.502s3.25-2.017 3.25-4.502c-0.002-2.48-1.455-4.498-3.25-4.498zM44.265 16.565c0.373-0.912 0.388-6.098-1.587-11.065 0 0-4.527 0.498-11.377 5.2-1.438-0.4-3.87-0.595-6.298-0.595-2.433 0-4.862 0.195-6.3 0.595-6.852-4.702-11.38-5.2-11.38-5.2-1.973 4.967-1.952 10.152-1.585 11.065-2.32 2.52-3.737 5.548-3.737 9.677 0 17.965 14.908 18.252 18.667 18.252 0.855 0 2.545 0.005 4.335 0.005 1.787 0 3.48-0.005 4.33-0.005 3.765 0 18.667-0.288 18.667-18.252 0-4.13-1.415-7.158-3.735-9.677zM25.070 42.288h-0.14c-9.427 0-16.773-1.123-16.773-10.288 0-2.198 0.775-4.233 2.617-5.923 3.067-2.817 8.262-1.327 14.155-1.327 0.025 0 0.050 0 0.073 0 0.025 0 0.045 0 0.067 0 5.892 0 11.090-1.49 14.16 1.327 1.837 1.69 2.612 3.725 2.612 5.923 0 9.165-7.342 10.288-16.773 10.288zM17.052 28.273c-1.795 0-3.25 2.017-3.25 4.498 0 2.485 1.455 4.502 3.25 4.502 1.798 0 3.252-2.017 3.252-4.502 0-2.48-1.455-4.498-3.252-4.498z"></path>
</svg>
