<!-- Generated by IcoMoon.io -->
<svg version="1.1" xmlns="http://www.w3.org/2000/svg" width="50" height="50" viewBox="0 0 50 50">
<title>globe</title>
<path d="M25 1c-13.237 0-24.002 10.767-24.002 24s10.765 24 24.002 24c13.233 0 24-10.767 24-24s-10.767-24-24-24zM45.47 25c0 4.683-1.59 9-4.24 12.45-0.75-0.585-1.548-2.167-0.798-3.808 0.758-1.65 0.955-5.47 0.78-6.958-0.165-1.485-0.938-5.063-3.035-5.098-2.095-0.030-3.533-0.723-4.777-3.208-2.583-5.17 4.848-6.162 2.265-9.023-0.723-0.805-4.458 3.305-5.005-2.173-0.035-0.392 0.338-0.98 0.84-1.59 8.11 2.725 13.97 10.392 13.97 19.405zM22.188 4.733c-0.49 0.955-1.783 1.342-2.567 2.060-1.71 1.548-2.445 1.333-3.365 2.817-0.927 1.485-3.917 3.623-3.917 4.698s1.51 2.34 2.265 2.095c0.755-0.25 2.748-0.235 3.917 0.175 1.173 0.415 9.785 0.83 7.040 8.11-0.87 2.315-4.683 1.925-5.698 5.758-0.152 0.563-0.68 2.965-0.712 3.75-0.063 1.215 0.86 5.795-0.313 5.795-1.177 0-4.345-4.098-4.345-4.84s-0.82-3.345-0.82-5.575c0-2.227-3.795-2.192-3.795-5.155 0-2.67 2.058-4 1.595-5.283-0.452-1.275-4.067-1.317-5.575-1.475 2.633-6.827 8.825-11.895 16.29-12.93zM18.56 44.425c1.23-0.65 1.355-1.49 2.47-1.533 1.275-0.058 2.313-0.498 3.75-0.815 1.275-0.277 3.558-1.573 5.565-1.737 1.695-0.138 5.037 0.087 5.938 1.723-3.237 2.152-7.12 3.408-11.285 3.408-2.248 0-4.413-0.373-6.438-1.045z"></path>
</svg>
