<!-- Generated by IcoMoon.io -->
<svg version="1.1" xmlns="http://www.w3.org/2000/svg" width="50" height="50" viewBox="0 0 50 50">
<title>info-with-circle</title>
<path d="M25 1c-13.258 0-24.002 10.745-24.002 24 0 13.258 10.745 24.002 24.002 24.002 13.252 0 24-10.745 24-24.002 0-13.255-10.748-24-24-24zM27.24 9.665c2.34 0 3.027 1.358 3.027 2.91 0 1.938-1.55 3.73-4.198 3.73-2.215 0-3.27-1.112-3.205-2.955 0-1.552 1.298-3.685 4.375-3.685zM21.245 39.375c-1.6 0-2.767-0.973-1.65-5.235l1.833-7.562c0.317-1.21 0.37-1.695 0-1.695-0.477 0-2.555 0.835-3.78 1.66l-0.798-1.308c3.887-3.248 8.358-5.152 10.27-5.152 1.6 0 1.865 1.89 1.067 4.8l-2.1 7.95c-0.373 1.405-0.212 1.89 0.16 1.89 0.48 0 2.050-0.58 3.595-1.798l0.905 1.215c-3.783 3.78-7.905 5.235-9.502 5.235z"></path>
</svg>
