<!-- Generated by IcoMoon.io -->
<svg version="1.1" xmlns="http://www.w3.org/2000/svg" width="50" height="50" viewBox="0 0 50 50">
<title>instagram</title>
<path d="M42.5 2.5h-35c-2.75 0-5 2.25-5 5v35c0 2.752 2.25 5 5 5h35c2.75 0 5-2.248 5-5v-35c0-2.75-2.25-5-5-5zM24.96 38.808c7.648 0 13.845-6.202 13.845-13.848 0-0.845-0.108-1.66-0.258-2.46h3.952v18.040c0 0.955-0.775 1.725-1.733 1.725h-31.535c-0.958 0-1.733-0.77-1.733-1.725v-18.040h3.873c-0.152 0.8-0.26 1.615-0.26 2.46 0 7.648 6.202 13.848 13.848 13.848zM16.308 24.96c0-4.78 3.875-8.652 8.655-8.652 4.777 0 8.655 3.873 8.655 8.652s-3.877 8.655-8.655 8.655c-4.783 0-8.655-3.875-8.655-8.655zM40.767 15h-4.038c-0.955 0-1.73-0.78-1.73-1.73v-4.042c0-0.955 0.775-1.727 1.727-1.727h4.038c0.96 0 1.735 0.773 1.735 1.727v4.040c0 0.952-0.775 1.733-1.733 1.733z"></path>
</svg>
