<!-- Generated by IcoMoon.io -->
<svg version="1.1" xmlns="http://www.w3.org/2000/svg" width="50" height="50" viewBox="0 0 50 50">
<title>linkedin</title>
<path d="M12.5 7.5c0 2.655-1.775 4.94-5.002 4.94-3.038 0-4.998-2.155-4.998-4.81 0-2.725 1.9-5.13 5-5.13s4.94 2.275 5 5zM2.5 47.5v-32.5h10v32.5h-10z"></path>
<path d="M17.5 26.11c0-3.863-0.127-7.090-0.255-9.877h8.985l0.445 4.308h0.19c1.265-2.027 4.365-5 9.555-5 6.33 0 11.080 4.238 11.080 13.355v18.605h-10v-17.152c0-3.985-1.517-7.025-5-7.025-2.655 0-3.985 2.15-4.683 3.923-0.255 0.635-0.317 1.52-0.317 2.408v17.848h-10v-21.39z"></path>
</svg>
