<!-- Generated by IcoMoon.io -->
<svg version="1.1" xmlns="http://www.w3.org/2000/svg" width="50" height="50" viewBox="0 0 50 50">
<title>magnifying-glass</title>
<path d="M43.862 38.667l-9.448-9.448c1.425-2.337 2.245-5.087 2.245-8.025 0-8.542-7.402-15.942-15.945-15.942-8.542-0.002-15.465 6.923-15.465 15.465 0 8.54 7.402 15.942 15.942 15.942 2.842 0 5.5-0.773 7.788-2.11l9.498 9.502c0.93 0.927 2.438 0.927 3.365 0l2.358-2.358c0.927-0.927 0.59-2.1-0.338-3.027zM10.010 20.717c0-5.915 4.792-10.708 10.705-10.708 5.915 0 11.185 5.267 11.185 11.185 0 5.912-4.795 10.708-10.708 10.708-5.915-0.002-11.183-5.273-11.183-11.185z"></path>
</svg>
