<!-- Generated by IcoMoon.io -->
<svg version="1.1" xmlns="http://www.w3.org/2000/svg" width="50" height="50" viewBox="0 0 50 50">
<title>mail</title>
<path d="M3.935 13.215c1.22 0.655 18.12 9.735 18.75 10.073s1.445 0.498 2.265 0.498c0.82 0 1.635-0.16 2.265-0.498s17.53-9.417 18.75-10.073c1.223-0.658 2.377-3.215 0.135-3.215h-42.298c-2.242 0-1.087 2.558 0.133 3.215zM46.533 18.723c-1.388 0.723-18.467 9.623-19.317 10.067s-1.445 0.498-2.265 0.498-1.415-0.052-2.265-0.498-17.833-9.348-19.22-10.070c-0.975-0.51-0.965 0.087-0.965 0.548s0 18.233 0 18.233c0 1.050 1.415 2.5 2.5 2.5h40c1.085 0 2.5-1.45 2.5-2.5 0 0 0-17.77 0-18.23s0.010-1.058-0.967-0.548z"></path>
</svg>
