<!-- Generated by IcoMoon.io -->
<svg version="1.1" xmlns="http://www.w3.org/2000/svg" width="50" height="50" viewBox="0 0 50 50">
<title>network</title>
<path d="M13.185 17.288c0.5 0 0.985 0.073 1.44 0.215 1.725-1.933 3.637-3.692 5.708-5.25-0.087-0.365-0.135-0.748-0.135-1.138 0-0.542 0.090-1.065 0.255-1.552-2.323-1.66-4.842-3.058-7.527-4.135-2.513 1.552-4.705 3.577-6.455 5.952 1.298 2.3 2.84 4.442 4.595 6.392 0.64-0.31 1.358-0.485 2.12-0.485zM8.29 22.18c0-0.688 0.145-1.342 0.398-1.933-1.57-1.73-2.992-3.59-4.238-5.573-1.563 3.105-2.45 6.612-2.45 10.327 0 4.298 1.185 8.32 3.237 11.762 0.735-4.135 2.127-8.048 4.050-11.63-0.625-0.82-0.998-1.848-0.998-2.955zM25.090 6.223c1.292 0 2.463 0.502 3.34 1.323 2.552-1.098 5.24-1.942 8.038-2.48-3.377-1.948-7.292-3.065-11.467-3.065-2.848 0-5.573 0.523-8.090 1.47 1.998 0.987 3.902 2.138 5.692 3.438 0.73-0.435 1.577-0.685 2.487-0.685zM32.405 29.27c0.305-0.635 0.738-1.198 1.273-1.64-1.445-4.442-3.733-8.51-6.68-12.008-0.585 0.25-1.23 0.385-1.91 0.385-1.063 0-2.040-0.342-2.842-0.913-1.775 1.348-3.417 2.858-4.91 4.508 0.47 0.748 0.742 1.63 0.742 2.577 0 0.508-0.077 1-0.225 1.465 4.292 2.865 9.235 4.835 14.552 5.625zM38.752 35.877c0.065 0.927 0.102 1.86 0.102 2.802 0 1.66-0.105 3.295-0.305 4.902 3.9-2.848 6.87-6.895 8.367-11.598-1.775 0.43-3.595 0.738-5.452 0.912-0.433 1.342-1.43 2.423-2.713 2.98zM31.26 32.56c-5.68-0.942-10.942-3.11-15.525-6.21-0.745 0.455-1.617 0.723-2.552 0.723-0.348 0-0.68-0.035-1.005-0.102-2.192 4.155-3.595 8.792-3.998 13.71 2.19 2.35 4.86 4.242 7.862 5.512 3.73-5.733 8.94-10.473 15.217-13.633zM40.44 7.952c-3.688 0.358-7.208 1.285-10.483 2.67 0.015 0.165 0.025 0.327 0.025 0.492 0 0.773-0.185 1.5-0.502 2.148 3.277 3.848 5.817 8.325 7.423 13.227 1.992 0.040 3.692 1.255 4.425 2.987 2.215-0.225 4.37-0.65 6.445-1.26 0.15-1.050 0.23-2.125 0.23-3.217-0.002-6.76-2.917-12.84-7.563-17.048zM33.723 35.173c-5.86 2.745-10.76 6.973-14.308 12.14 1.788 0.448 3.658 0.688 5.585 0.688 3.467 0 6.755-0.773 9.705-2.148 0.475-2.32 0.725-4.717 0.725-7.173 0-0.888-0.040-1.767-0.108-2.637-0.59-0.19-1.133-0.483-1.6-0.87z"></path>
</svg>
