<!-- Generated by IcoMoon.io -->
<svg version="1.1" xmlns="http://www.w3.org/2000/svg" width="50" height="50" viewBox="0 0 50 50">
<title>twitter</title>
<path d="M43.29 15.615c0.020 0.405 0.027 0.815 0.027 1.22 0 12.475-9.492 26.855-26.85 26.855-5.333 0-10.29-1.563-14.467-4.242 0.74 0.087 1.49 0.133 2.25 0.133 4.425 0 8.492-1.51 11.72-4.038-4.127-0.077-7.615-2.802-8.815-6.552 0.575 0.108 1.167 0.165 1.775 0.165 0.863 0 1.698-0.112 2.488-0.327-4.317-0.87-7.57-4.683-7.57-9.258 0-0.040 0-0.077 0-0.117 1.273 0.708 2.73 1.133 4.275 1.183-2.533-1.695-4.2-4.58-4.2-7.858 0-1.727 0.465-3.35 1.28-4.745 4.652 5.713 11.61 9.467 19.452 9.863-0.16-0.692-0.242-1.41-0.242-2.152 0-5.21 4.223-9.433 9.435-9.433 2.715 0 5.167 1.142 6.89 2.977 2.148-0.425 4.167-1.21 5.992-2.29-0.705 2.202-2.202 4.052-4.15 5.22 1.91-0.23 3.725-0.733 5.42-1.485-1.265 1.895-2.865 3.555-4.71 4.883z"></path>
</svg>
